<mxfile host="app.diagrams.net" agent="Mozilla/5.0 (Macintosh; Intel Mac OS X 10_15_7) AppleWebKit/537.36 (KHTML, like Gecko) Chrome/129.0.0.0 Safari/537.36" version="24.7.17">
  <diagram name="Page-1" id="9f46799a-70d6-7492-0946-bef42562c5a5">
    <mxGraphModel dx="1405" dy="1610" grid="1" gridSize="10" guides="1" tooltips="1" connect="1" arrows="1" fold="1" page="1" pageScale="1" pageWidth="1100" pageHeight="850" background="none" math="0" shadow="0">
      <root>
        <mxCell id="0" />
        <mxCell id="1" parent="0" />
        <mxCell id="G7pcmhMVW_DNJ9YIAKHG-56" value="Maintains" style="edgeStyle=orthogonalEdgeStyle;rounded=0;orthogonalLoop=1;jettySize=auto;html=1;exitX=0.5;exitY=0;exitDx=0;exitDy=0;entryX=0;entryY=0.5;entryDx=0;entryDy=0;" parent="1" source="78961159f06e98e8-17" target="G7pcmhMVW_DNJ9YIAKHG-55" edge="1">
          <mxGeometry relative="1" as="geometry" />
        </mxCell>
        <mxCell id="G7pcmhMVW_DNJ9YIAKHG-58" value="1" style="edgeLabel;html=1;align=center;verticalAlign=middle;resizable=0;points=[];" parent="G7pcmhMVW_DNJ9YIAKHG-56" vertex="1" connectable="0">
          <mxGeometry x="-0.8825" y="2" relative="1" as="geometry">
            <mxPoint x="-8" y="-1" as="offset" />
          </mxGeometry>
        </mxCell>
        <mxCell id="G7pcmhMVW_DNJ9YIAKHG-59" value="*" style="edgeLabel;html=1;align=center;verticalAlign=middle;resizable=0;points=[];" parent="G7pcmhMVW_DNJ9YIAKHG-56" vertex="1" connectable="0">
          <mxGeometry x="0.8498" y="-4" relative="1" as="geometry">
            <mxPoint y="-12" as="offset" />
          </mxGeometry>
        </mxCell>
        <mxCell id="G7pcmhMVW_DNJ9YIAKHG-104" value="Creates" style="edgeStyle=orthogonalEdgeStyle;rounded=0;orthogonalLoop=1;jettySize=auto;html=1;exitX=0.5;exitY=1;exitDx=0;exitDy=0;entryX=0.5;entryY=0;entryDx=0;entryDy=0;" parent="1" source="78961159f06e98e8-17" target="G7pcmhMVW_DNJ9YIAKHG-103" edge="1">
          <mxGeometry relative="1" as="geometry" />
        </mxCell>
        <mxCell id="G7pcmhMVW_DNJ9YIAKHG-112" value="1" style="edgeLabel;html=1;align=center;verticalAlign=middle;resizable=0;points=[];" parent="G7pcmhMVW_DNJ9YIAKHG-104" vertex="1" connectable="0">
          <mxGeometry x="-0.7725" y="2" relative="1" as="geometry">
            <mxPoint x="8" as="offset" />
          </mxGeometry>
        </mxCell>
        <mxCell id="G7pcmhMVW_DNJ9YIAKHG-113" value="*" style="edgeLabel;html=1;align=center;verticalAlign=middle;resizable=0;points=[];" parent="G7pcmhMVW_DNJ9YIAKHG-104" vertex="1" connectable="0">
          <mxGeometry x="0.6931" y="-1" relative="1" as="geometry">
            <mxPoint x="11" as="offset" />
          </mxGeometry>
        </mxCell>
        <mxCell id="78961159f06e98e8-17" value="Agent" style="swimlane;html=1;fontStyle=1;align=center;verticalAlign=top;childLayout=stackLayout;horizontal=1;startSize=97;horizontalStack=0;resizeParent=1;resizeLast=0;collapsible=1;marginBottom=0;swimlaneFillColor=#ffffff;rounded=0;shadow=0;comic=0;labelBackgroundColor=none;strokeWidth=1;fillColor=none;fontFamily=Verdana;fontSize=12" parent="1" vertex="1">
          <mxGeometry x="220" y="170" width="160" height="97" as="geometry" />
        </mxCell>
        <mxCell id="G7pcmhMVW_DNJ9YIAKHG-1" value="Customer" style="swimlane;html=1;fontStyle=1;align=center;verticalAlign=top;childLayout=stackLayout;horizontal=1;startSize=97;horizontalStack=0;resizeParent=1;resizeLast=0;collapsible=1;marginBottom=0;swimlaneFillColor=#ffffff;rounded=0;shadow=0;comic=0;labelBackgroundColor=none;strokeWidth=1;fillColor=none;fontFamily=Verdana;fontSize=12" parent="1" vertex="1">
          <mxGeometry x="590.0000000000001" y="340" width="160" height="97" as="geometry" />
        </mxCell>
        <mxCell id="G7pcmhMVW_DNJ9YIAKHG-2" value="Lead" style="swimlane;html=1;fontStyle=1;align=center;verticalAlign=top;childLayout=stackLayout;horizontal=1;startSize=97;horizontalStack=0;resizeParent=1;resizeLast=0;collapsible=1;marginBottom=0;swimlaneFillColor=#ffffff;rounded=0;shadow=0;comic=0;labelBackgroundColor=none;strokeWidth=1;fillColor=none;fontFamily=Verdana;fontSize=12" parent="1" vertex="1">
          <mxGeometry x="840.0000000000001" y="340" width="160" height="97" as="geometry" />
        </mxCell>
        <mxCell id="G7pcmhMVW_DNJ9YIAKHG-29" value="Quote" style="swimlane;html=1;fontStyle=1;align=center;verticalAlign=top;childLayout=stackLayout;horizontal=1;startSize=97;horizontalStack=0;resizeParent=1;resizeLast=0;collapsible=1;marginBottom=0;swimlaneFillColor=#ffffff;rounded=0;shadow=0;comic=0;labelBackgroundColor=none;strokeWidth=1;fillColor=none;fontFamily=Verdana;fontSize=12" parent="1" vertex="1">
          <mxGeometry x="910" y="-350" width="160" height="97" as="geometry" />
        </mxCell>
        <mxCell id="G7pcmhMVW_DNJ9YIAKHG-37" value="Task" style="swimlane;html=1;fontStyle=1;align=center;verticalAlign=top;childLayout=stackLayout;horizontal=1;startSize=97;horizontalStack=0;resizeParent=1;resizeLast=0;collapsible=1;marginBottom=0;swimlaneFillColor=#ffffff;rounded=0;shadow=0;comic=0;labelBackgroundColor=none;strokeWidth=1;fillColor=none;fontFamily=Verdana;fontSize=12" parent="1" vertex="1">
          <mxGeometry x="280" y="-230" width="160" height="97" as="geometry" />
        </mxCell>
        <mxCell id="G7pcmhMVW_DNJ9YIAKHG-39" value="Portfolio" style="swimlane;html=1;fontStyle=1;align=center;verticalAlign=top;childLayout=stackLayout;horizontal=1;startSize=97;horizontalStack=0;resizeParent=1;resizeLast=0;collapsible=1;marginBottom=0;swimlaneFillColor=#ffffff;rounded=0;shadow=0;comic=0;labelBackgroundColor=none;strokeWidth=1;fillColor=none;fontFamily=Verdana;fontSize=12" parent="1" vertex="1">
          <mxGeometry x="470" y="170" width="160" height="97" as="geometry" />
        </mxCell>
        <mxCell id="G7pcmhMVW_DNJ9YIAKHG-43" value="" style="endArrow=diamondThin;endFill=1;endSize=24;html=1;rounded=0;entryX=1;entryY=0.25;entryDx=0;entryDy=0;" parent="1" target="G7pcmhMVW_DNJ9YIAKHG-39" edge="1">
          <mxGeometry width="160" relative="1" as="geometry">
            <mxPoint x="741" y="194" as="sourcePoint" />
            <mxPoint x="680" y="250" as="targetPoint" />
          </mxGeometry>
        </mxCell>
        <mxCell id="G7pcmhMVW_DNJ9YIAKHG-45" value="1" style="edgeLabel;html=1;align=center;verticalAlign=middle;resizable=0;points=[];" parent="G7pcmhMVW_DNJ9YIAKHG-43" vertex="1" connectable="0">
          <mxGeometry x="0.5459" y="-2" relative="1" as="geometry">
            <mxPoint as="offset" />
          </mxGeometry>
        </mxCell>
        <mxCell id="G7pcmhMVW_DNJ9YIAKHG-46" value="*" style="edgeLabel;html=1;align=center;verticalAlign=middle;resizable=0;points=[];" parent="G7pcmhMVW_DNJ9YIAKHG-43" vertex="1" connectable="0">
          <mxGeometry x="-0.8275" y="-3" relative="1" as="geometry">
            <mxPoint as="offset" />
          </mxGeometry>
        </mxCell>
        <mxCell id="LpV7Yuo97g7e0veTPllS-7" style="edgeStyle=orthogonalEdgeStyle;rounded=0;orthogonalLoop=1;jettySize=auto;html=1;exitX=1;exitY=0.5;exitDx=0;exitDy=0;entryX=0;entryY=0.5;entryDx=0;entryDy=0;" edge="1" parent="1" source="G7pcmhMVW_DNJ9YIAKHG-49" target="LpV7Yuo97g7e0veTPllS-6">
          <mxGeometry relative="1" as="geometry" />
        </mxCell>
        <mxCell id="LpV7Yuo97g7e0veTPllS-8" value="1" style="edgeLabel;html=1;align=center;verticalAlign=middle;resizable=0;points=[];" vertex="1" connectable="0" parent="LpV7Yuo97g7e0veTPllS-7">
          <mxGeometry x="-0.8629" y="1" relative="1" as="geometry">
            <mxPoint y="-7" as="offset" />
          </mxGeometry>
        </mxCell>
        <mxCell id="G7pcmhMVW_DNJ9YIAKHG-49" value="Contact" style="swimlane;html=1;fontStyle=1;align=center;verticalAlign=top;childLayout=stackLayout;horizontal=1;startSize=97;horizontalStack=0;resizeParent=1;resizeLast=0;collapsible=1;marginBottom=0;swimlaneFillColor=#ffffff;rounded=0;shadow=0;comic=0;labelBackgroundColor=none;strokeWidth=1;fillColor=none;fontFamily=Verdana;fontSize=12" parent="1" vertex="1">
          <mxGeometry x="740" y="170" width="160" height="97" as="geometry" />
        </mxCell>
        <mxCell id="G7pcmhMVW_DNJ9YIAKHG-50" value="" style="endArrow=block;endSize=16;endFill=0;html=1;rounded=0;exitX=0.5;exitY=0;exitDx=0;exitDy=0;entryX=0.5;entryY=1;entryDx=0;entryDy=0;" parent="1" edge="1">
          <mxGeometry width="160" relative="1" as="geometry">
            <mxPoint x="690" y="340" as="sourcePoint" />
            <mxPoint x="820" y="267" as="targetPoint" />
            <Array as="points">
              <mxPoint x="820" y="310" />
            </Array>
          </mxGeometry>
        </mxCell>
        <mxCell id="G7pcmhMVW_DNJ9YIAKHG-51" value="" style="endArrow=block;endSize=16;endFill=0;html=1;rounded=0;exitX=0.5;exitY=0;exitDx=0;exitDy=0;entryX=0.5;entryY=1;entryDx=0;entryDy=0;" parent="1" edge="1">
          <mxGeometry width="160" relative="1" as="geometry">
            <mxPoint x="920" y="340" as="sourcePoint" />
            <mxPoint x="820" y="267" as="targetPoint" />
            <Array as="points">
              <mxPoint x="820" y="310" />
            </Array>
          </mxGeometry>
        </mxCell>
        <mxCell id="G7pcmhMVW_DNJ9YIAKHG-94" style="edgeStyle=orthogonalEdgeStyle;rounded=0;orthogonalLoop=1;jettySize=auto;html=1;exitX=0.75;exitY=0;exitDx=0;exitDy=0;entryX=0.5;entryY=1;entryDx=0;entryDy=0;" parent="1" source="G7pcmhMVW_DNJ9YIAKHG-55" target="G7pcmhMVW_DNJ9YIAKHG-93" edge="1">
          <mxGeometry relative="1" as="geometry" />
        </mxCell>
        <mxCell id="LpV7Yuo97g7e0veTPllS-12" value="1" style="edgeLabel;html=1;align=center;verticalAlign=middle;resizable=0;points=[];" vertex="1" connectable="0" parent="G7pcmhMVW_DNJ9YIAKHG-94">
          <mxGeometry x="-0.8695" relative="1" as="geometry">
            <mxPoint as="offset" />
          </mxGeometry>
        </mxCell>
        <mxCell id="LpV7Yuo97g7e0veTPllS-13" value="0..1" style="edgeLabel;html=1;align=center;verticalAlign=middle;resizable=0;points=[];" vertex="1" connectable="0" parent="G7pcmhMVW_DNJ9YIAKHG-94">
          <mxGeometry x="0.8794" y="-1" relative="1" as="geometry">
            <mxPoint x="9" as="offset" />
          </mxGeometry>
        </mxCell>
        <mxCell id="LpV7Yuo97g7e0veTPllS-5" style="edgeStyle=orthogonalEdgeStyle;rounded=0;orthogonalLoop=1;jettySize=auto;html=1;exitX=0.5;exitY=0;exitDx=0;exitDy=0;entryX=0.5;entryY=1;entryDx=0;entryDy=0;" edge="1" parent="1" source="G7pcmhMVW_DNJ9YIAKHG-55" target="LpV7Yuo97g7e0veTPllS-4">
          <mxGeometry relative="1" as="geometry" />
        </mxCell>
        <mxCell id="LpV7Yuo97g7e0veTPllS-10" value="1" style="edgeLabel;html=1;align=center;verticalAlign=middle;resizable=0;points=[];" vertex="1" connectable="0" parent="LpV7Yuo97g7e0veTPllS-5">
          <mxGeometry x="-0.9069" y="-1" relative="1" as="geometry">
            <mxPoint as="offset" />
          </mxGeometry>
        </mxCell>
        <mxCell id="LpV7Yuo97g7e0veTPllS-11" value="1" style="edgeLabel;html=1;align=center;verticalAlign=middle;resizable=0;points=[];" vertex="1" connectable="0" parent="LpV7Yuo97g7e0veTPllS-5">
          <mxGeometry x="0.8929" relative="1" as="geometry">
            <mxPoint as="offset" />
          </mxGeometry>
        </mxCell>
        <mxCell id="G7pcmhMVW_DNJ9YIAKHG-55" value="Pipeline" style="swimlane;html=1;fontStyle=1;align=center;verticalAlign=top;childLayout=stackLayout;horizontal=1;startSize=97;horizontalStack=0;resizeParent=1;resizeLast=0;collapsible=1;marginBottom=0;swimlaneFillColor=#ffffff;rounded=0;shadow=0;comic=0;labelBackgroundColor=none;strokeWidth=1;fillColor=none;fontFamily=Verdana;fontSize=12" parent="1" vertex="1">
          <mxGeometry x="460" y="20" width="160" height="97" as="geometry" />
        </mxCell>
        <mxCell id="G7pcmhMVW_DNJ9YIAKHG-62" value="Product" style="swimlane;html=1;fontStyle=1;align=center;verticalAlign=top;childLayout=stackLayout;horizontal=1;startSize=97;horizontalStack=0;resizeParent=1;resizeLast=0;collapsible=1;marginBottom=0;swimlaneFillColor=#ffffff;rounded=0;shadow=0;comic=0;labelBackgroundColor=none;strokeWidth=1;fillColor=none;fontFamily=Verdana;fontSize=12;direction=east;" parent="1" vertex="1">
          <mxGeometry x="600" y="-388" width="160" height="97" as="geometry" />
        </mxCell>
        <mxCell id="G7pcmhMVW_DNJ9YIAKHG-63" value="Order" style="swimlane;html=1;fontStyle=1;align=center;verticalAlign=top;childLayout=stackLayout;horizontal=1;startSize=97;horizontalStack=0;resizeParent=1;resizeLast=0;collapsible=1;marginBottom=0;swimlaneFillColor=#ffffff;rounded=0;shadow=0;comic=0;labelBackgroundColor=none;strokeWidth=1;fillColor=none;fontFamily=Verdana;fontSize=12;direction=east;" parent="1" vertex="1">
          <mxGeometry x="910" y="-200" width="160" height="97" as="geometry" />
        </mxCell>
        <mxCell id="G7pcmhMVW_DNJ9YIAKHG-64" value="Good" style="swimlane;html=1;fontStyle=1;align=center;verticalAlign=top;childLayout=stackLayout;horizontal=1;startSize=97;horizontalStack=0;resizeParent=1;resizeLast=0;collapsible=1;marginBottom=0;swimlaneFillColor=#ffffff;rounded=0;shadow=0;comic=0;labelBackgroundColor=none;strokeWidth=1;fillColor=none;fontFamily=Verdana;fontSize=12;direction=east;" parent="1" vertex="1">
          <mxGeometry x="730" y="-558" width="160" height="97" as="geometry" />
        </mxCell>
        <mxCell id="G7pcmhMVW_DNJ9YIAKHG-65" value="Service" style="swimlane;html=1;fontStyle=1;align=center;verticalAlign=top;childLayout=stackLayout;horizontal=1;startSize=97;horizontalStack=0;resizeParent=1;resizeLast=0;collapsible=1;marginBottom=0;swimlaneFillColor=#ffffff;rounded=0;shadow=0;comic=0;labelBackgroundColor=none;strokeWidth=1;fillColor=none;fontFamily=Verdana;fontSize=12;direction=east;" parent="1" vertex="1">
          <mxGeometry x="500" y="-558" width="160" height="97" as="geometry" />
        </mxCell>
        <mxCell id="G7pcmhMVW_DNJ9YIAKHG-69" value="" style="endArrow=block;endSize=16;endFill=0;html=1;rounded=0;exitX=0.5;exitY=1;exitDx=0;exitDy=0;" parent="1" source="G7pcmhMVW_DNJ9YIAKHG-64" edge="1">
          <mxGeometry width="160" relative="1" as="geometry">
            <mxPoint x="420" y="-181" as="sourcePoint" />
            <mxPoint x="680" y="-388" as="targetPoint" />
            <Array as="points">
              <mxPoint x="680" y="-431" />
            </Array>
          </mxGeometry>
        </mxCell>
        <mxCell id="G7pcmhMVW_DNJ9YIAKHG-70" value="" style="endArrow=block;endSize=16;endFill=0;html=1;rounded=0;exitX=0.5;exitY=1;exitDx=0;exitDy=0;" parent="1" source="G7pcmhMVW_DNJ9YIAKHG-65" edge="1">
          <mxGeometry width="160" relative="1" as="geometry">
            <mxPoint x="800" y="-471" as="sourcePoint" />
            <mxPoint x="680" y="-388" as="targetPoint" />
            <Array as="points">
              <mxPoint x="680" y="-431" />
            </Array>
          </mxGeometry>
        </mxCell>
        <mxCell id="G7pcmhMVW_DNJ9YIAKHG-87" style="edgeStyle=orthogonalEdgeStyle;rounded=0;orthogonalLoop=1;jettySize=auto;html=1;exitX=0.25;exitY=0;exitDx=0;exitDy=0;entryX=0.699;entryY=0.997;entryDx=0;entryDy=0;entryPerimeter=0;" parent="1" source="G7pcmhMVW_DNJ9YIAKHG-55" target="G7pcmhMVW_DNJ9YIAKHG-37" edge="1">
          <mxGeometry relative="1" as="geometry" />
        </mxCell>
        <mxCell id="G7pcmhMVW_DNJ9YIAKHG-90" value="Invoice" style="swimlane;html=1;fontStyle=1;align=center;verticalAlign=top;childLayout=stackLayout;horizontal=1;startSize=97;horizontalStack=0;resizeParent=1;resizeLast=0;collapsible=1;marginBottom=0;swimlaneFillColor=#ffffff;rounded=0;shadow=0;comic=0;labelBackgroundColor=none;strokeWidth=1;fillColor=none;fontFamily=Verdana;fontSize=12;direction=east;" parent="1" vertex="1">
          <mxGeometry x="910" y="-50" width="160" height="97" as="geometry" />
        </mxCell>
        <mxCell id="G7pcmhMVW_DNJ9YIAKHG-93" value="Transaction" style="swimlane;html=1;fontStyle=1;align=center;verticalAlign=top;childLayout=stackLayout;horizontal=1;startSize=97;horizontalStack=0;resizeParent=1;resizeLast=0;collapsible=1;marginBottom=0;swimlaneFillColor=#ffffff;rounded=0;shadow=0;comic=0;labelBackgroundColor=none;strokeWidth=1;fillColor=none;fontFamily=Verdana;fontSize=12" parent="1" vertex="1">
          <mxGeometry x="600" y="-200" width="160" height="97" as="geometry" />
        </mxCell>
        <mxCell id="G7pcmhMVW_DNJ9YIAKHG-97" value="" style="endArrow=diamondThin;endFill=1;endSize=24;html=1;rounded=0;entryX=0.5;entryY=0;entryDx=0;entryDy=0;exitX=0.5;exitY=1;exitDx=0;exitDy=0;" parent="1" source="G7pcmhMVW_DNJ9YIAKHG-62" target="G7pcmhMVW_DNJ9YIAKHG-93" edge="1">
          <mxGeometry width="160" relative="1" as="geometry">
            <mxPoint x="560" y="-270" as="sourcePoint" />
            <mxPoint x="720" y="-270" as="targetPoint" />
          </mxGeometry>
        </mxCell>
        <mxCell id="G7pcmhMVW_DNJ9YIAKHG-100" value="" style="endArrow=block;endSize=16;endFill=0;html=1;rounded=0;exitX=0;exitY=0.5;exitDx=0;exitDy=0;" parent="1" edge="1">
          <mxGeometry width="160" relative="1" as="geometry">
            <mxPoint x="910" y="-302.5" as="sourcePoint" />
            <mxPoint x="760" y="-151" as="targetPoint" />
            <Array as="points">
              <mxPoint x="840" y="-301" />
              <mxPoint x="840" y="-151" />
            </Array>
          </mxGeometry>
        </mxCell>
        <mxCell id="G7pcmhMVW_DNJ9YIAKHG-101" value="" style="endArrow=block;endSize=16;endFill=0;html=1;rounded=0;exitX=0;exitY=0.5;exitDx=0;exitDy=0;entryX=1;entryY=0.5;entryDx=0;entryDy=0;" parent="1" target="G7pcmhMVW_DNJ9YIAKHG-93" edge="1">
          <mxGeometry width="160" relative="1" as="geometry">
            <mxPoint x="910" y="-151" as="sourcePoint" />
            <mxPoint x="760" y="-1" as="targetPoint" />
            <Array as="points" />
          </mxGeometry>
        </mxCell>
        <mxCell id="G7pcmhMVW_DNJ9YIAKHG-102" value="" style="endArrow=block;endSize=16;endFill=0;html=1;rounded=0;exitX=0;exitY=0.5;exitDx=0;exitDy=0;entryX=1;entryY=0.5;entryDx=0;entryDy=0;" parent="1" target="G7pcmhMVW_DNJ9YIAKHG-93" edge="1">
          <mxGeometry width="160" relative="1" as="geometry">
            <mxPoint x="920" y="-2.0600000000000023" as="sourcePoint" />
            <mxPoint x="770" y="-2.0600000000000023" as="targetPoint" />
            <Array as="points">
              <mxPoint x="840" y="-1" />
              <mxPoint x="840" y="-151" />
            </Array>
          </mxGeometry>
        </mxCell>
        <mxCell id="G7pcmhMVW_DNJ9YIAKHG-103" value="Comment" style="swimlane;html=1;fontStyle=1;align=center;verticalAlign=top;childLayout=stackLayout;horizontal=1;startSize=97;horizontalStack=0;resizeParent=1;resizeLast=0;collapsible=1;marginBottom=0;swimlaneFillColor=#ffffff;rounded=0;shadow=0;comic=0;labelBackgroundColor=none;strokeWidth=1;fillColor=none;fontFamily=Verdana;fontSize=12" parent="1" vertex="1">
          <mxGeometry x="220" y="377" width="160" height="97" as="geometry" />
        </mxCell>
        <mxCell id="G7pcmhMVW_DNJ9YIAKHG-106" value="" style="endArrow=diamondThin;endFill=0;endSize=24;html=1;rounded=0;entryX=1;entryY=0.5;entryDx=0;entryDy=0;exitX=0;exitY=0.75;exitDx=0;exitDy=0;" parent="1" source="G7pcmhMVW_DNJ9YIAKHG-49" target="G7pcmhMVW_DNJ9YIAKHG-103" edge="1">
          <mxGeometry width="160" relative="1" as="geometry">
            <mxPoint x="370" y="190" as="sourcePoint" />
            <mxPoint x="530" y="190" as="targetPoint" />
          </mxGeometry>
        </mxCell>
        <mxCell id="G7pcmhMVW_DNJ9YIAKHG-107" value="*" style="edgeLabel;html=1;align=center;verticalAlign=middle;resizable=0;points=[];" parent="G7pcmhMVW_DNJ9YIAKHG-106" vertex="1" connectable="0">
          <mxGeometry x="0.8462" y="4" relative="1" as="geometry">
            <mxPoint y="10" as="offset" />
          </mxGeometry>
        </mxCell>
        <mxCell id="G7pcmhMVW_DNJ9YIAKHG-108" value="1" style="edgeLabel;html=1;align=center;verticalAlign=middle;resizable=0;points=[];" parent="G7pcmhMVW_DNJ9YIAKHG-106" vertex="1" connectable="0">
          <mxGeometry x="-0.9017" y="2" relative="1" as="geometry">
            <mxPoint as="offset" />
          </mxGeometry>
        </mxCell>
        <mxCell id="G7pcmhMVW_DNJ9YIAKHG-109" value="" style="endArrow=diamondThin;endFill=0;endSize=24;html=1;rounded=0;entryX=1;entryY=0.5;entryDx=0;entryDy=0;exitX=0;exitY=0.5;exitDx=0;exitDy=0;" parent="1" source="G7pcmhMVW_DNJ9YIAKHG-39" target="78961159f06e98e8-17" edge="1">
          <mxGeometry width="160" relative="1" as="geometry">
            <mxPoint x="410" y="240" as="sourcePoint" />
            <mxPoint x="570" y="240" as="targetPoint" />
          </mxGeometry>
        </mxCell>
        <mxCell id="G7pcmhMVW_DNJ9YIAKHG-110" value="1" style="edgeLabel;html=1;align=center;verticalAlign=middle;resizable=0;points=[];" parent="G7pcmhMVW_DNJ9YIAKHG-109" vertex="1" connectable="0">
          <mxGeometry x="0.6" y="-1" relative="1" as="geometry">
            <mxPoint y="-17" as="offset" />
          </mxGeometry>
        </mxCell>
        <mxCell id="G7pcmhMVW_DNJ9YIAKHG-111" value="1" style="edgeLabel;html=1;align=center;verticalAlign=middle;resizable=0;points=[];" parent="G7pcmhMVW_DNJ9YIAKHG-109" vertex="1" connectable="0">
          <mxGeometry x="-0.4963" y="-2" relative="1" as="geometry">
            <mxPoint x="13" y="-16" as="offset" />
          </mxGeometry>
        </mxCell>
        <mxCell id="G7pcmhMVW_DNJ9YIAKHG-114" value="" style="endArrow=diamondThin;endFill=0;endSize=24;html=1;rounded=0;entryX=1;entryY=0.5;entryDx=0;entryDy=0;exitX=0.5;exitY=0;exitDx=0;exitDy=0;" parent="1" source="G7pcmhMVW_DNJ9YIAKHG-49" edge="1">
          <mxGeometry width="160" relative="1" as="geometry">
            <mxPoint x="710" y="68.16999999999999" as="sourcePoint" />
            <mxPoint x="620" y="68.16999999999999" as="targetPoint" />
            <Array as="points">
              <mxPoint x="820" y="68" />
            </Array>
          </mxGeometry>
        </mxCell>
        <mxCell id="G7pcmhMVW_DNJ9YIAKHG-115" value="*" style="edgeLabel;html=1;align=center;verticalAlign=middle;resizable=0;points=[];" parent="G7pcmhMVW_DNJ9YIAKHG-114" vertex="1" connectable="0">
          <mxGeometry x="0.6" y="-1" relative="1" as="geometry">
            <mxPoint x="-40" y="-17" as="offset" />
          </mxGeometry>
        </mxCell>
        <mxCell id="G7pcmhMVW_DNJ9YIAKHG-116" value="1" style="edgeLabel;html=1;align=center;verticalAlign=middle;resizable=0;points=[];" parent="G7pcmhMVW_DNJ9YIAKHG-114" vertex="1" connectable="0">
          <mxGeometry x="-0.4963" y="-2" relative="1" as="geometry">
            <mxPoint x="18" y="56" as="offset" />
          </mxGeometry>
        </mxCell>
        <mxCell id="LpV7Yuo97g7e0veTPllS-1" value="Campaign" style="swimlane;html=1;fontStyle=1;align=center;verticalAlign=top;childLayout=stackLayout;horizontal=1;startSize=97;horizontalStack=0;resizeParent=1;resizeLast=0;collapsible=1;marginBottom=0;swimlaneFillColor=#ffffff;rounded=0;shadow=0;comic=0;labelBackgroundColor=none;strokeWidth=1;fillColor=none;fontFamily=Verdana;fontSize=12" vertex="1" parent="1">
          <mxGeometry x="100" y="-160" width="160" height="97" as="geometry" />
        </mxCell>
        <mxCell id="LpV7Yuo97g7e0veTPllS-2" value="1" style="endArrow=none;html=1;endSize=12;startArrow=diamondThin;startSize=14;startFill=0;edgeStyle=orthogonalEdgeStyle;align=left;verticalAlign=bottom;rounded=0;exitX=0.75;exitY=1;exitDx=0;exitDy=0;entryX=0.088;entryY=-0.021;entryDx=0;entryDy=0;entryPerimeter=0;endFill=0;" edge="1" parent="1" source="LpV7Yuo97g7e0veTPllS-1" target="G7pcmhMVW_DNJ9YIAKHG-55">
          <mxGeometry x="-0.803" relative="1" as="geometry">
            <mxPoint x="310" y="110" as="sourcePoint" />
            <mxPoint x="470" y="110" as="targetPoint" />
            <mxPoint as="offset" />
          </mxGeometry>
        </mxCell>
        <mxCell id="LpV7Yuo97g7e0veTPllS-3" value="*" style="edgeLabel;html=1;align=center;verticalAlign=middle;resizable=0;points=[];" vertex="1" connectable="0" parent="LpV7Yuo97g7e0veTPllS-2">
          <mxGeometry x="0.9245" y="-1" relative="1" as="geometry">
            <mxPoint x="-5" y="-5" as="offset" />
          </mxGeometry>
        </mxCell>
        <mxCell id="LpV7Yuo97g7e0veTPllS-4" value="Status" style="swimlane;html=1;fontStyle=1;align=center;verticalAlign=top;childLayout=stackLayout;horizontal=1;startSize=97;horizontalStack=0;resizeParent=1;resizeLast=0;collapsible=1;marginBottom=0;swimlaneFillColor=#ffffff;rounded=0;shadow=0;comic=0;labelBackgroundColor=none;strokeWidth=1;fillColor=none;fontFamily=Verdana;fontSize=12" vertex="1" parent="1">
          <mxGeometry x="390" y="-370" width="160" height="97" as="geometry" />
        </mxCell>
        <mxCell id="LpV7Yuo97g7e0veTPllS-6" value="Contact Person" style="swimlane;html=1;fontStyle=1;align=center;verticalAlign=top;childLayout=stackLayout;horizontal=1;startSize=97;horizontalStack=0;resizeParent=1;resizeLast=0;collapsible=1;marginBottom=0;swimlaneFillColor=#ffffff;rounded=0;shadow=0;comic=0;labelBackgroundColor=none;strokeWidth=1;fillColor=none;fontFamily=Verdana;fontSize=12" vertex="1" parent="1">
          <mxGeometry x="1040" y="170" width="160" height="97" as="geometry" />
        </mxCell>
        <mxCell id="LpV7Yuo97g7e0veTPllS-9" value="1..*" style="text;html=1;align=center;verticalAlign=middle;resizable=0;points=[];autosize=1;strokeColor=none;fillColor=none;" vertex="1" parent="1">
          <mxGeometry x="1000" y="198" width="40" height="30" as="geometry" />
        </mxCell>
      </root>
    </mxGraphModel>
  </diagram>
</mxfile>
